# xmcd
#
# Track frame offsets: 
#        150
#        14327
#        28632
#        41232
#        55895
#        69460
#        83067
#        96785
#        107622
#        121805
#        134935
#        148307
#        160557
#        175092
#        188780
#        202387
#
# Disc length: 2863 seconds
#
# Revision: 2
# Processed by: cddbd v1.5.1PL2 Copyright (c) Steve Scherf et al.
# Submitted via: ExactAudioCopy v0.95b4
#
DISCID=e70b2d10
DTITLE=The Carter Family - The Country Music
DYEAR=1900
DGENRE=Country
TTITLE0=You Are My Flower
TTITLE1=Hold Fast To The Right
TTITLE2=Hello Stranger
TTITLE3=In The Shadow Of Clinch Mountain
TTITLE4=Coal Miner's Blues
TTITLE5=Lover's Lane
TTITLE6=Bonnie Blue Eyes
TTITLE7=You're Nothing More To Me
TTITLE8=Answer To Weeping Willow
TTITLE9=Charlie And Nellie
TTITLE10=My Dixie Darling
TTITLE11=Oh Take Me Back
TTITLE12=Dark Haired True Lover
TTITLE13=Just A Few More Days
TTITLE14=Young Freda Bolt
TTITLE15=You Denied Your Love
EXTD=
EXTT0=
EXTT1=
EXTT2=
EXTT3=
EXTT4=
EXTT5=
EXTT6=
EXTT7=
EXTT8=
EXTT9=
EXTT10=
EXTT11=
EXTT12=
EXTT13=
EXTT14=
EXTT15=
PLAYORDER=
